<svg width="10" height="14" viewBox="0 0 10 14" fill="none" xmlns="http://www.w3.org/2000/svg">
<path d="M1.66667 6.16668H5.41667C5.9692 6.16668 6.4991 5.94718 6.88981 5.55648C7.28051 5.16578 7.5 4.63588 7.5 4.08334C7.5 3.53081 7.28051 3.00091 6.88981 2.6102C6.4991 2.2195 5.9692 2.00001 5.41667 2.00001H1.66667V6.16668ZM10 9.91668C10 10.4091 9.903 10.8968 9.71455 11.3517C9.52609 11.8067 9.24987 12.2201 8.90165 12.5683C8.55343 12.9165 8.14003 13.1928 7.68506 13.3812C7.23009 13.5697 6.74246 13.6667 6.25 13.6667H0V0.333344H5.41667C6.1508 0.333374 6.86877 0.548887 7.48156 0.953159C8.09435 1.35743 8.575 1.93268 8.86391 2.60757C9.15282 3.28246 9.23728 4.02731 9.10682 4.74975C8.97636 5.4722 8.63671 6.14046 8.13 6.67168C8.69887 7.00109 9.17111 7.47432 9.49934 8.04388C9.82756 8.61344 10.0002 9.25931 10 9.91668ZM1.66667 7.83334V12H6.25C6.80253 12 7.33244 11.7805 7.72314 11.3898C8.11384 10.9991 8.33333 10.4692 8.33333 9.91668C8.33333 9.36414 8.11384 8.83424 7.72314 8.44354C7.33244 8.05284 6.80253 7.83334 6.25 7.83334H1.66667Z" fill="#4D4D4D"/>
</svg>
