<svg width="18" height="14" viewBox="0 0 18 14" fill="none" xmlns="http://www.w3.org/2000/svg">
<path d="M2.33329 0.333344V6.16668H8.16663V0.333344H9.83329V13.6667H8.16663V7.83334H2.33329V13.6667H0.666626V0.333344H2.33329ZM14.4166 3.66668C16.1425 3.66668 17.5416 5.06584 17.5416 6.79168C17.5416 7.50584 17.3016 8.16501 16.8983 8.69168L16.775 8.84168L14.0283 12H17.3333V13.6667H11.5V12.37L15.5166 7.74834C15.74 7.49251 15.875 7.15751 15.875 6.79168C15.875 5.98668 15.2216 5.33334 14.4166 5.33334C13.6516 5.33334 13.0241 5.92251 12.9633 6.67168L12.9583 6.79168H11.2916C11.2916 5.06584 12.6908 3.66668 14.4166 3.66668Z" fill="#4D4D4D"/>
</svg>
