<svg width="18" height="14" viewBox="0 0 18 14" fill="none" xmlns="http://www.w3.org/2000/svg">
<path d="M17.3333 3.66668L17.3316 5.33334L15.2441 7.73584C16.5691 8.09834 17.5416 9.31084 17.5416 10.75C17.5416 12.4758 16.1425 13.875 14.4166 13.875C12.895 13.875 11.6275 12.7875 11.3483 11.3475L12.985 11.0292C13.115 11.7008 13.7066 12.2083 14.4166 12.2083C15.2216 12.2083 15.875 11.555 15.875 10.75C15.875 9.94501 15.2216 9.29168 14.4166 9.29168C14.1783 9.29168 13.9533 9.34918 13.755 9.45001L12.6658 8.16084L15.125 5.33334H11.5V3.66668H17.3333ZM2.33329 0.333344V6.16668H8.16663V0.333344H9.83329V13.6667H8.16663V7.83334H2.33329V13.6667H0.666626V0.333344H2.33329Z" fill="#4D4D4D"/>
</svg>
