<svg width="18" height="16" viewBox="0 0 18 16" fill="none" xmlns="http://www.w3.org/2000/svg">
<path d="M3.02329 15.5L3.00663 15.5167L2.98913 15.5H1.49329C1.27397 15.4998 1.06371 15.4125 0.908701 15.2573C0.753694 15.1022 0.666626 14.8918 0.666626 14.6725V1.3275C0.668151 1.10865 0.75571 0.899181 0.910387 0.744348C1.06506 0.589515 1.27444 0.501746 1.49329 0.5H16.5066C16.9633 0.5 17.3333 0.870833 17.3333 1.3275V14.6725C17.3318 14.8914 17.2442 15.1008 17.0895 15.2557C16.9349 15.4105 16.7255 15.4983 16.5066 15.5H3.02329V15.5ZM15.6666 10.5V2.16667H2.33329V13.8333L10.6666 5.5L15.6666 10.5ZM15.6666 12.8567L10.6666 7.85667L4.68996 13.8333H15.6666V12.8567ZM5.66663 7.16667C5.2246 7.16667 4.80068 6.99107 4.48811 6.67851C4.17555 6.36595 3.99996 5.94203 3.99996 5.5C3.99996 5.05797 4.17555 4.63405 4.48811 4.32149C4.80068 4.00893 5.2246 3.83333 5.66663 3.83333C6.10865 3.83333 6.53258 4.00893 6.84514 4.32149C7.1577 4.63405 7.33329 5.05797 7.33329 5.5C7.33329 5.94203 7.1577 6.36595 6.84514 6.67851C6.53258 6.99107 6.10865 7.16667 5.66663 7.16667Z" fill="#4D4D4D"/>
</svg>
